PathFileType	4	(X/Y/Z)	C:/Users/opensim2020/Desktop/walking_exp_matlab/subject01_walking09_straight_04.trc	
DataRate	CameraRate	NumFrames	NumMarkers	Units	OrigDataRate	OrigDataStartFrame	OrigNumFrames	
100.00	100.00	8	43	mm	100.00	4106	292	
Frame#	Time	LFHD			RFHD			LBHD			RBHD			C7			T10			CLAV			STRN			RBAK			LSHO			LUPA			LELB			LFRM			LWRA			LWRB			LFIN			RSHO			RUPA			RELB			RFRM			RWRA			RWRB			RFIN			LASI			RASI			LPSI			RPSI			LTHI			LKNE			LTIB			LANK			LHEE			LTOE			RTHI			RKNE			RTIB			RANK			RHEE			RTOE			*39			*40			*41			*42			
		X1	Y1	Z1	X2	Y2	Z2	X3	Y3	Z3	X4	Y4	Z4	X5	Y5	Z5	X6	Y6	Z6	X7	Y7	Z7	X8	Y8	Z8	X9	Y9	Z9	X10	Y10	Z10	X11	Y11	Z11	X12	Y12	Z12	X13	Y13	Z13	X14	Y14	Z14	X15	Y15	Z15	X16	Y16	Z16	X17	Y17	Z17	X18	Y18	Z18	X19	Y19	Z19	X20	Y20	Z20	X21	Y21	Z21	X22	Y22	Z22	X23	Y23	Z23	X24	Y24	Z24	X25	Y25	Z25	X26	Y26	Z26	X27	Y27	Z27	X28	Y28	Z28	X29	Y29	Z29	X30	Y30	Z30	X31	Y31	Z31	X32	Y32	Z32	X33	Y33	Z33	X34	Y34	Z34	X35	Y35	Z35	X36	Y36	Z36	X37	Y37	Z37	X38	Y38	Z38	X39	Y39	Z39	X40	Y40	Z40	X41	Y41	Z41	X42	Y42	Z42	X43	Y43	Z43	

220	2.190	1493.16785	-313.70645	1663.46460	1381.00049	-333.99762	1663.50464	1479.77783	-193.60251	1632.15552	1359.83728	-211.79158	1631.75085	1439.79578	-144.94318	1426.25281	1430.74463	-121.64959	1130.55359	1445.79443	-288.93951	1361.79578	1458.19409	-337.10547	1210.06775	1363.35010	-101.63100	1226.43372	1603.31262	-220.21617	1392.76880	1694.79248	-210.88557	1212.15723	1705.81531	-227.12160	1059.13501	1727.12195	-308.05005	974.89716	1701.26672	-426.80859	905.81689	1729.25903	-381.32556	877.64282	1739.05225	-456.31406	840.28992	1290.64355	-232.15108	1386.22437	1195.62024	-168.92818	1185.16284	1197.41931	-166.22319	1060.61975	1169.63623	-188.27484	941.56573	1193.25818	-261.59857	820.29614	1152.34241	-221.05029	823.40552	1158.16821	-251.20869	741.88550	1555.29700	-286.51935	925.67633	1341.71838	-316.10175	934.05475	1478.19800	-109.57545	941.58472	1334.38818	-130.98375	946.06714	1601.95520	-218.84543	590.51587	1591.02246	-188.88152	458.14236	1590.71692	-49.66130	328.18524	1536.37390	85.51597	154.05421	1478.37231	130.46388	158.40050	1532.62720	-2.30811	33.76947	1281.66370	-314.75052	603.71082	1313.40674	-352.99066	451.57202	1306.47034	-326.58643	276.14615	1356.53113	-327.22711	71.86180	1405.42737	-278.76880	32.41402	1365.81677	-468.32794	37.65083	1401.86609	-324.84094	1698.89807	-3101.88940	1973.12683	1023.59753	-3140.76025	2012.59058	1022.16211			 
221	2.200	1491.41345	-320.48062	1664.11841	1379.18909	-340.65591	1664.00928	1478.27515	-200.43854	1632.56177	1358.30005	-218.45805	1632.00781	1438.27234	-152.06122	1426.61377	1429.07886	-128.82381	1130.99207	1444.55542	-296.10959	1362.31873	1456.84351	-344.19534	1210.51392	1361.56616	-108.84637	1227.02917	1601.99243	-227.27742	1393.22009	1693.22559	-217.42784	1212.55798	1704.19849	-232.61505	1059.52649	1725.53418	-312.44821	974.37323	1699.77905	-430.38947	903.80090	1727.76135	-384.50552	876.13831	1737.47180	-459.00177	837.78943	1289.57922	-239.14871	1387.05786	1193.90747	-176.82187	1185.75098	1195.74402	-174.20613	1061.09961	1168.16956	-196.98564	942.02185	1192.35864	-270.75174	821.18127	1151.27649	-230.30147	823.98474	1157.51721	-260.81750	742.56854	1553.57019	-293.60205	926.20929	1340.07971	-322.99817	934.29858	1476.77087	-116.47540	941.74408	1333.05554	-137.88800	946.69360	1602.45862	-230.99084	590.38226	1592.29541	-202.80930	457.91183	1591.45862	-61.19268	331.25964	1537.12268	76.91203	159.65067	1478.76306	121.06474	166.16173	1531.95874	-3.84331	34.98861	1280.49194	-318.97046	603.80243	1312.18359	-355.64432	451.24472	1305.82178	-327.79025	275.91483	1356.48462	-327.45950	71.72820	1405.38708	-278.90176	32.52758	1365.78821	-468.66739	37.27979	1400.03113	-331.45300	1699.38525	-3101.88843	1973.14722	1023.56403	-3140.55957	2012.51270	1021.96265			 
222	2.210	1489.75818	-327.28137	1664.63989	1377.51270	-347.34067	1664.47668	1476.81604	-207.31726	1632.83630	1356.86609	-225.13394	1632.15723	1437.02197	-159.00981	1427.04968	1427.43909	-135.83838	1131.36536	1443.37024	-303.13522	1362.73560	1455.62488	-351.23120	1210.89819	1359.86633	-115.87946	1227.52649	1600.79675	-234.12001	1393.57422	1691.66809	-223.72464	1212.79138	1702.69092	-238.05882	1059.82288	1723.97925	-316.77316	973.73022	1698.36389	-433.74026	901.58636	1726.34729	-387.50833	874.48877	1735.94556	-461.47501	835.07751	1288.31750	-246.36041	1387.59729	1192.27563	-184.71194	1186.23474	1194.04248	-182.28993	1061.48535	1166.71204	-205.77452	942.49677	1191.48792	-279.79358	821.94525	1149.91321	-239.84868	824.58722	1156.77283	-270.64679	743.22992	1552.01147	-300.45493	926.50220	1338.59326	-329.45309	934.47882	1475.48596	-123.13642	941.69843	1331.72156	-144.53011	947.09308	1602.98132	-243.11472	590.22015	1593.53418	-216.66728	457.65994	1592.04919	-73.28577	334.06097	1537.74817	67.85516	165.28238	1479.44751	111.56668	173.72946	1531.04285	-6.63312	36.38629	1279.34973	-322.96365	603.71735	1310.96484	-358.25415	450.80820	1305.08948	-328.75552	275.57193	1356.45227	-327.68222	71.62659	1405.33618	-278.89340	32.51651	1365.76294	-468.94922	36.94129	1398.27490	-338.01654	1699.82410	-3101.85693	1973.06372	1023.61816	-3140.76367	2012.50061	1022.03351			 
223	2.220	1488.26367	-334.10022	1665.11768	1375.92957	-353.97183	1664.84021	1475.49084	-214.11816	1633.04077	1355.47217	-231.82878	1632.33582	1435.72729	-165.95045	1427.38464	1425.90100	-142.74454	1131.71533	1442.24097	-310.22464	1363.05078	1454.41125	-358.07806	1211.04138	1358.15283	-122.89040	1227.96765	1599.56543	-241.03732	1393.79407	1690.12915	-229.82275	1212.87219	1701.15613	-243.34961	1059.97070	1722.51440	-320.87622	972.95422	1697.02698	-436.96210	899.24249	1724.90747	-390.33414	872.73199	1734.49316	-463.76041	832.28046	1287.07666	-253.72270	1387.99683	1190.54773	-192.69556	1186.54724	1192.32043	-190.40965	1061.75793	1165.16321	-214.61504	942.83368	1190.46045	-289.18481	822.76831	1148.70679	-249.32863	825.21130	1155.81287	-280.53726	743.84192	1550.51221	-307.15738	926.61481	1336.97754	-335.97922	934.47906	1474.30627	-129.61943	941.51044	1330.52893	-151.00577	947.34631	1603.50879	-255.07722	590.06494	1594.70459	-230.31781	457.41400	1592.66699	-85.77540	336.64951	1538.25098	58.34634	171.15265	1480.28198	102.15043	180.92068	1530.73535	-11.53034	39.62350	1278.13977	-327.07553	603.72992	1309.81177	-361.01389	450.35468	1304.34436	-330.12881	275.45844	1356.49304	-327.93918	71.56944	1405.25732	-278.93463	32.59436	1365.73694	-469.29279	36.57520	1396.68054	-344.58359	1700.16504	-3101.98950	1973.09326	1023.79773	-3140.67676	2012.45557	1021.92499			 
224	2.230	1486.83069	-340.87109	1665.48608	1374.49109	-360.60632	1665.17273	1474.23340	-220.92674	1633.20923	1354.26172	-238.49106	1632.41516	1434.53577	-172.91162	1427.80151	1424.43408	-149.53244	1132.01636	1441.12988	-317.19162	1363.16003	1453.29236	-364.83386	1211.15820	1356.59888	-129.77863	1228.42773	1598.41895	-247.96112	1394.03027	1688.60803	-235.76344	1212.82971	1699.57434	-248.53854	1059.93262	1721.00830	-324.88446	972.05939	1695.72693	-439.97525	896.81195	1723.59436	-393.00400	870.94287	1733.17249	-465.78598	829.42413	1285.80652	-261.06650	1388.41492	1188.89258	-200.64980	1186.84534	1190.57874	-198.54205	1061.99939	1163.63550	-223.53781	943.18616	1189.30396	-298.83463	823.66486	1147.63037	-259.36533	825.83380	1154.79175	-290.74289	744.55341	1549.17554	-313.61856	926.59381	1335.51563	-342.17468	934.56567	1473.22180	-135.94440	941.14001	1329.45081	-157.05656	947.50342	1603.94250	-266.72086	590.07037	1595.73608	-243.81870	457.31808	1593.50049	-98.82483	338.80661	1538.13098	48.51561	176.70251	1480.39075	92.30466	187.41356	1531.32227	-19.02510	43.62590	1276.95996	-330.91980	603.80023	1309.01941	-363.93298	450.03769	1303.64514	-331.53015	275.12610	1356.46912	-328.29620	71.63915	1405.17200	-279.01169	32.58043	1365.89734	-469.54697	36.27465	1395.22534	-351.03436	1700.36072	-3101.93628	1973.01514	1023.48651	-3140.62256	2012.58313	1022.11133			 
225	2.240	1485.51501	-347.73105	1665.77637	1373.16675	-367.28375	1665.41663	1473.10828	-227.80287	1633.38464	1353.07166	-245.28011	1632.46594	1433.26221	-179.76503	1428.05981	1423.08728	-156.18347	1132.32983	1440.01025	-323.97424	1363.25415	1452.20386	-371.42932	1211.12305	1355.04565	-136.59293	1228.81946	1597.34314	-254.67317	1394.15369	1687.17456	-241.50671	1212.75647	1697.91711	-253.56587	1059.89185	1719.53308	-328.66833	971.09930	1694.45056	-442.84976	894.28345	1722.26282	-395.40591	869.08118	1731.81494	-467.69629	826.44922	1284.91748	-267.86432	1388.70276	1187.24841	-208.58800	1187.03748	1188.82422	-206.77545	1062.13293	1162.03369	-232.55785	943.41272	1188.30005	-308.06039	824.19257	1146.20654	-269.08615	826.18445	1153.55298	-300.84653	745.23218	1547.95020	-319.90054	926.51624	1334.02454	-348.29492	934.57617	1472.27673	-142.17439	940.72363	1328.45166	-162.00822	947.69928	1604.31165	-278.13367	590.14923	1596.47131	-257.32465	457.22696	1594.46985	-112.16477	340.47064	1537.49194	38.12669	182.00629	1479.29578	81.42931	192.63866	1533.45605	-27.96088	47.96646	1276.19360	-334.72632	603.37537	1308.25342	-366.88638	449.70105	1302.98657	-333.55173	274.81223	1356.42395	-328.51706	71.48769	1405.16406	-279.01770	32.69500	1366.07861	-469.74496	36.06174	1393.91357	-357.88712	1700.80298	-3101.92383	1973.11658	1023.41736	-3140.71558	2012.53284	1021.93945			 
226	2.250	1484.36609	-354.58255	1666.07104	1371.97375	-374.10883	1665.70508	1472.07288	-234.64479	1633.54224	1351.98303	-252.01347	1632.58545	1432.12097	-186.58365	1428.41833	1421.90662	-162.66060	1132.63965	1438.92639	-330.62338	1363.23438	1451.23279	-378.03024	1211.14917	1353.75427	-143.27478	1229.28528	1596.32544	-261.35901	1394.27686	1685.58765	-247.01312	1212.63452	1696.20837	-258.38055	1059.72412	1718.03613	-332.33249	970.12402	1693.21082	-445.45099	891.72437	1720.94958	-397.67432	867.18024	1730.46631	-469.33313	823.44714	1283.80371	-274.98737	1388.82874	1185.66357	-216.52036	1187.17664	1187.09448	-214.93796	1062.19641	1160.47522	-241.52884	943.73730	1187.16174	-317.59781	824.96863	1144.83838	-278.45328	826.49060	1152.27490	-311.15448	746.18427	1546.86194	-326.12460	926.29047	1332.57813	-354.20953	934.62701	1471.43286	-148.22278	940.30981	1327.60046	-167.77112	947.83960	1604.57617	-289.35049	590.39996	1597.01086	-270.78665	457.27536	1594.93896	-125.59035	341.77368	1536.38281	27.04429	186.66443	1477.14197	69.76933	196.56937	1536.42224	-37.84268	52.16957	1275.27661	-338.62485	603.26489	1307.53979	-369.90933	449.33365	1302.50891	-335.71536	274.80258	1356.43384	-328.57980	71.61511	1405.15796	-279.10342	32.83087	1366.26648	-469.84918	35.93206	1392.69873	-364.63287	1701.01343	-3101.98828	1973.05042	1023.32495	-3140.72070	2012.51660	1021.98016			 
227	2.260	1483.26746	-361.44980	1666.25793	1370.81470	-380.86560	1665.84338	1471.07690	-241.55353	1633.70667	1351.03552	-258.75778	1632.79614	1431.02014	-193.39789	1428.78052	1420.75488	-169.04985	1132.96436	1438.02649	-337.40610	1363.43628	1450.31494	-384.49789	1211.09497	1352.47656	-149.81810	1229.71887	1595.35803	-268.05518	1394.38367	1684.33508	-252.55382	1212.54907	1694.45496	-263.08212	1059.56360	1716.52637	-335.77701	969.09277	1691.99365	-448.00525	889.18292	1719.62024	-399.77948	865.24689	1729.26355	-470.72318	820.55280	1282.86487	-281.96451	1388.96973	1184.15442	-224.42677	1187.27734	1185.31433	-223.20610	1062.28259	1158.93359	-250.55565	943.92963	1186.04187	-327.12268	825.63361	1143.42017	-288.34824	827.18903	1150.89709	-321.42142	746.80042	1545.83850	-332.25946	926.13824	1331.19446	-360.03967	934.71234	1470.68164	-154.27188	939.99200	1326.90332	-174.33328	947.94922	1604.85596	-300.30835	590.89124	1597.43054	-284.30670	457.58664	1594.79822	-138.98872	343.07953	1535.41553	15.32907	190.67561	1474.99219	57.22094	199.56709	1539.89368	-48.83694	56.15398	1274.41675	-342.54547	603.19324	1307.01282	-372.90421	449.11731	1302.01453	-337.86801	274.36014	1356.38721	-328.77267	71.50137	1405.01538	-279.03931	32.79844	1366.42627	-469.96735	35.81832	1391.60889	-371.37686	1701.23401	-3101.97974	1973.14722	1023.39154	-3140.62891	2012.61230	1022.04980			 
